<svg xmlns="http://www.w3.org/2000/svg" viewBox="0 0 100 100" role="img" aria-label="3D Model Maker">
  <title>3D Model Maker</title>
  <defs>
    <linearGradient id="mmTop" x1="14" y1="14" x2="72" y2="52" gradientUnits="userSpaceOnUse">
      <stop offset="0" stop-color="#c3bbff" />
      <stop offset="1" stop-color="#7c6cff" />
    </linearGradient>
    <linearGradient id="mmLeft" x1="16" y1="44" x2="50" y2="94" gradientUnits="userSpaceOnUse">
      <stop offset="0" stop-color="#7d84ff" />
      <stop offset="1" stop-color="#3ddad7" />
    </linearGradient>
    <linearGradient id="mmRight" x1="84" y1="42" x2="52" y2="94" gradientUnits="userSpaceOnUse">
      <stop offset="0" stop-color="#57e8e2" />
      <stop offset="1" stop-color="#2f95b6" />
    </linearGradient>
  </defs>
  <polygon points="50,20 84,40 50,60 16,40" fill="url(#mmTop)" />
  <polygon points="16,40 50,60 50,96 16,76" fill="url(#mmLeft)" />
  <polygon points="84,40 50,60 50,96 84,76" fill="url(#mmRight)" />
  <g fill="none" stroke="#070a10" stroke-width="3.4" stroke-linejoin="round" stroke-linecap="round" opacity="0.5">
    <polygon points="50,20 84,40 50,60 16,40" />
    <path d="M16,40 L16,76 L50,96 L84,76 L84,40" />
    <path d="M50,60 L50,96" />
  </g>
  <g fill="none" stroke="rgba(255,255,255,0.92)" stroke-width="1.7" stroke-linejoin="round" stroke-linecap="round">
    <polygon points="50,20 84,40 50,60 16,40" />
    <path d="M16,40 L16,76 L50,96 L84,76 L84,40" />
    <path d="M50,60 L50,96" />
  </g>
  <g fill="#f4f8ff">
    <circle cx="50" cy="20" r="2.5" /><circle cx="16" cy="40" r="2.5" /><circle cx="84" cy="40" r="2.5" />
    <circle cx="50" cy="60" r="2.5" /><circle cx="16" cy="76" r="2.5" /><circle cx="84" cy="76" r="2.5" />
    <circle cx="50" cy="96" r="2.5" />
  </g>
</svg>
